<svg width="15" height="15" viewBox="0 0 15 15" fill="none" xmlns="http://www.w3.org/2000/svg">
<path d="M7.45753 5.04561L7.78153 5.80343C7.8035 5.86933 7.8639 5.90777 7.92431 5.91326L8.74803 5.99014C8.92375 6.00661 8.98965 6.22078 8.86335 6.3361L8.24281 6.87975C8.19339 6.92369 8.17142 6.98958 8.1879 7.04999L8.36912 7.85724C8.40756 8.02747 8.22634 8.15927 8.07258 8.0714L7.36418 7.64856C7.30926 7.61561 7.23788 7.61561 7.18296 7.64856L6.47456 8.0714C6.32629 8.15927 6.13958 8.02747 6.17802 7.85724L6.35924 7.04999C6.37572 6.98958 6.35375 6.92369 6.30433 6.87975L5.68379 6.3361C5.552 6.22078 5.62338 6.00661 5.79911 5.99014L6.62283 5.91326C6.68873 5.90777 6.74364 5.86933 6.7711 5.80892L7.0951 5.0511C7.16099 4.88635 7.38614 4.88635 7.45753 5.04561Z" stroke="#F0C932" stroke-width="0.549146" stroke-miterlimit="10" stroke-linecap="round" stroke-linejoin="round"/>
<path d="M11.009 6.65167C11.0232 4.58934 9.36287 2.90597 7.30053 2.89178C5.23819 2.87759 3.55483 4.53794 3.54064 6.60028C3.52645 8.66262 5.1868 10.346 7.24914 10.3602C9.31148 10.3744 10.9948 8.71401 11.009 6.65167Z" stroke="#F0C932" stroke-width="0.549146" stroke-miterlimit="10" stroke-linecap="round" stroke-linejoin="round"/>
<path d="M6.76558 10.3229L5.83752 12.6568L4.66235 11.3114L2.88861 11.4761L4.06378 8.53268" stroke="#F0C932" stroke-width="0.549146" stroke-miterlimit="10" stroke-linecap="round" stroke-linejoin="round"/>
<path d="M7.77604 10.3229L8.70959 12.6568L9.87927 11.3114L11.6585 11.4761L10.4778 8.5327" stroke="#F0C932" stroke-width="0.549146" stroke-miterlimit="10" stroke-linecap="round" stroke-linejoin="round"/>
</svg>
