<svg width="349" height="74" viewBox="0 0 349 74" fill="none" xmlns="http://www.w3.org/2000/svg">
<g clip-path="url(#clip0_119_148)">
<path d="M103.036 34.8227V47.5883H98.7364V31.49H102.768L103.036 34.8227ZM102.441 38.9738H101.251C101.251 37.8529 101.385 36.8214 101.653 35.8791C101.93 34.9269 102.332 34.1036 102.858 33.4093C103.393 32.7051 104.053 32.1595 104.836 31.7727C105.62 31.3859 106.528 31.1925 107.559 31.1925C108.273 31.1925 108.928 31.3016 109.523 31.5198C110.118 31.7281 110.629 32.0604 111.056 32.5166C111.492 32.963 111.829 33.5482 112.067 34.2723C112.305 34.9864 112.424 35.8444 112.424 36.8462V47.5883H108.139V37.3223C108.139 36.5883 108.04 36.0229 107.842 35.6262C107.643 35.2294 107.361 34.9517 106.994 34.793C106.637 34.6343 106.205 34.5549 105.699 34.5549C105.144 34.5549 104.658 34.669 104.241 34.8971C103.835 35.1253 103.497 35.4427 103.23 35.8493C102.962 36.2461 102.763 36.7123 102.634 37.2479C102.506 37.7835 102.441 38.3588 102.441 38.9738ZM112.023 38.4828L110.49 38.6762C110.49 37.6248 110.619 36.6478 110.877 35.7452C111.145 34.8426 111.537 34.0491 112.052 33.3647C112.578 32.6803 113.228 32.1496 114.001 31.7727C114.775 31.3859 115.668 31.1925 116.68 31.1925C117.453 31.1925 118.157 31.3065 118.792 31.5347C119.427 31.7529 119.968 32.105 120.414 32.591C120.87 33.0671 121.217 33.692 121.455 34.4657C121.703 35.2393 121.827 36.1866 121.827 37.3074V47.5883H117.528V37.3074C117.528 36.5635 117.428 35.9981 117.23 35.6113C117.042 35.2145 116.764 34.9418 116.397 34.793C116.04 34.6343 115.613 34.5549 115.117 34.5549C114.602 34.5549 114.15 34.6591 113.763 34.8674C113.377 35.0658 113.054 35.3435 112.796 35.7006C112.538 36.0576 112.345 36.4742 112.216 36.9503C112.087 37.4165 112.023 37.9273 112.023 38.4828ZM133.834 43.958V36.7867C133.834 36.2709 133.75 35.8295 133.581 35.4625C133.413 35.0856 133.15 34.793 132.793 34.5847C132.445 34.3764 131.994 34.2723 131.439 34.2723C130.963 34.2723 130.551 34.3566 130.204 34.5252C129.857 34.6839 129.589 34.917 129.4 35.2245C129.212 35.522 129.118 35.8741 129.118 36.2808H124.833C124.833 35.5964 124.991 34.9467 125.309 34.3318C125.626 33.7168 126.088 33.1762 126.693 32.71C127.298 32.2339 128.017 31.862 128.85 31.5942C129.693 31.3264 130.635 31.1925 131.677 31.1925C132.927 31.1925 134.037 31.4008 135.009 31.8173C135.982 32.2339 136.745 32.8588 137.301 33.692C137.866 34.5252 138.149 35.5667 138.149 36.8164V43.705C138.149 44.5878 138.203 45.3119 138.312 45.8773C138.422 46.4327 138.58 46.9187 138.789 47.3353V47.5883H134.459C134.251 47.1518 134.092 46.6063 133.983 45.9517C133.884 45.2871 133.834 44.6225 133.834 43.958ZM134.399 37.7835L134.429 40.2087H132.034C131.468 40.2087 130.977 40.2731 130.561 40.4021C130.144 40.531 129.802 40.7145 129.534 40.9526C129.266 41.1807 129.068 41.4485 128.939 41.756C128.82 42.0635 128.761 42.4007 128.761 42.7677C128.761 43.1347 128.845 43.467 129.014 43.7646C129.182 44.0522 129.425 44.2803 129.743 44.449C130.06 44.6077 130.432 44.687 130.858 44.687C131.503 44.687 132.064 44.5581 132.54 44.3002C133.016 44.0423 133.383 43.7249 133.641 43.348C133.908 42.971 134.047 42.614 134.057 42.2767L135.188 44.0919C135.029 44.4985 134.811 44.9201 134.533 45.3565C134.266 45.793 133.923 46.2046 133.507 46.5914C133.09 46.9683 132.589 47.2808 132.004 47.5287C131.419 47.7668 130.725 47.8858 129.921 47.8858C128.899 47.8858 127.972 47.6825 127.139 47.2758C126.316 46.8592 125.661 46.2889 125.175 45.5648C124.699 44.8308 124.461 43.9976 124.461 43.0653C124.461 42.2222 124.62 41.4733 124.937 40.8187C125.254 40.164 125.721 39.6135 126.335 39.1672C126.96 38.7109 127.739 38.3687 128.671 38.1406C129.604 37.9025 130.685 37.7835 131.915 37.7835H134.399ZM145.647 34.9269V47.5883H141.362V31.49H145.38L145.647 34.9269ZM145.023 38.9738H143.862C143.862 37.7835 144.016 36.7123 144.323 35.7601C144.631 34.7979 145.062 33.9796 145.618 33.3052C146.173 32.6208 146.833 32.1 147.596 31.743C148.37 31.376 149.233 31.1925 150.185 31.1925C150.939 31.1925 151.628 31.3016 152.253 31.5198C152.878 31.738 153.414 32.0852 153.86 32.5613C154.316 33.0374 154.664 33.6672 154.902 34.4508C155.15 35.2344 155.274 36.1915 155.274 37.3223V47.5883H150.959V37.3074C150.959 36.5933 150.86 36.0378 150.661 35.641C150.463 35.2443 150.17 34.9666 149.784 34.8079C149.407 34.6392 148.94 34.5549 148.385 34.5549C147.81 34.5549 147.309 34.669 146.882 34.8971C146.466 35.1253 146.119 35.4427 145.841 35.8493C145.573 36.2461 145.37 36.7123 145.231 37.2479C145.092 37.7835 145.023 38.3588 145.023 38.9738ZM168.724 31.49H172.607V47.0526C172.607 48.5206 172.279 49.7654 171.625 50.7871C170.98 51.8186 170.077 52.5973 168.917 53.123C167.756 53.6586 166.407 53.9264 164.87 53.9264C164.196 53.9264 163.481 53.8371 162.728 53.6586C161.984 53.48 161.27 53.2023 160.585 52.8254C159.911 52.4485 159.345 51.9724 158.889 51.3971L160.779 48.8678C161.274 49.4431 161.85 49.8894 162.504 50.2068C163.159 50.5341 163.883 50.6978 164.677 50.6978C165.45 50.6978 166.105 50.554 166.641 50.2663C167.176 49.9886 167.588 49.577 167.875 49.0314C168.163 48.4958 168.307 47.8461 168.307 47.0824V35.2096L168.724 31.49ZM157.892 39.7326V39.4201C157.892 38.1902 158.041 37.0743 158.339 36.0725C158.646 35.0608 159.077 34.1929 159.633 33.4688C160.198 32.7448 160.883 32.1843 161.686 31.7876C162.49 31.3908 163.397 31.1925 164.409 31.1925C165.48 31.1925 166.378 31.3908 167.102 31.7876C167.826 32.1843 168.421 32.7497 168.887 33.4837C169.353 34.2078 169.715 35.0658 169.973 36.0576C170.241 37.0396 170.449 38.1158 170.598 39.2862V39.9706C170.449 41.0914 170.226 42.1329 169.929 43.095C169.631 44.0572 169.239 44.9003 168.753 45.6243C168.267 46.3385 167.662 46.8939 166.938 47.2907C166.224 47.6874 165.371 47.8858 164.379 47.8858C163.387 47.8858 162.49 47.6825 161.686 47.2758C160.893 46.8691 160.213 46.2988 159.648 45.5648C159.082 44.8308 158.646 43.9679 158.339 42.976C158.041 41.9841 157.892 40.903 157.892 39.7326ZM162.177 39.4201V39.7326C162.177 40.3971 162.242 41.017 162.371 41.5923C162.499 42.1676 162.698 42.6784 162.966 43.1248C163.243 43.5612 163.586 43.9034 163.992 44.1514C164.409 44.3894 164.9 44.5085 165.465 44.5085C166.249 44.5085 166.889 44.3448 167.384 44.0175C167.88 43.6802 168.252 43.219 168.5 42.6338C168.748 42.0486 168.892 41.3741 168.932 40.6104V38.6613C168.912 38.0364 168.828 37.476 168.679 36.9801C168.53 36.4742 168.322 36.0428 168.054 35.6857C167.786 35.3286 167.439 35.0509 167.013 34.8525C166.586 34.6541 166.08 34.5549 165.495 34.5549C164.93 34.5549 164.439 34.6839 164.022 34.9418C163.615 35.1897 163.273 35.5319 162.995 35.9684C162.728 36.4048 162.524 36.9206 162.385 37.5157C162.247 38.1009 162.177 38.7357 162.177 39.4201ZM182.59 44.5382C183.116 44.5382 183.582 44.439 183.989 44.2407C184.395 44.0324 184.713 43.7447 184.941 43.3777C185.179 43.0008 185.303 42.5594 185.313 42.0536H189.345C189.335 43.1843 189.032 44.1911 188.437 45.0738C187.842 45.9467 187.044 46.6361 186.042 47.1419C185.04 47.6379 183.919 47.8858 182.679 47.8858C181.43 47.8858 180.338 47.6775 179.406 47.2609C178.484 46.8443 177.715 46.2691 177.1 45.5351C176.485 44.7912 176.024 43.9282 175.716 42.9463C175.409 41.9544 175.255 40.8931 175.255 39.7623V39.3308C175.255 38.1902 175.409 37.1289 175.716 36.1469C176.024 35.155 176.485 34.2921 177.1 33.5581C177.715 32.8142 178.484 32.2339 179.406 31.8173C180.329 31.4008 181.41 31.1925 182.65 31.1925C183.969 31.1925 185.124 31.4454 186.116 31.9512C187.118 32.4571 187.902 33.1812 188.467 34.1235C189.042 35.0558 189.335 36.1618 189.345 37.4413H185.313C185.303 36.9057 185.189 36.4197 184.971 35.9832C184.762 35.5468 184.455 35.1997 184.048 34.9418C183.651 34.674 183.16 34.5401 182.575 34.5401C181.95 34.5401 181.439 34.674 181.043 34.9418C180.646 35.1997 180.338 35.5567 180.12 36.013C179.902 36.4593 179.748 36.9702 179.659 37.5455C179.58 38.1108 179.54 38.706 179.54 39.3308V39.7623C179.54 40.3872 179.58 40.9873 179.659 41.5626C179.738 42.1379 179.887 42.6487 180.105 43.095C180.333 43.5414 180.646 43.8935 181.043 44.1514C181.439 44.4093 181.955 44.5382 182.59 44.5382ZM191.145 39.7028V39.3904C191.145 38.21 191.314 37.1239 191.651 36.132C191.988 35.1302 192.479 34.2623 193.124 33.5283C193.769 32.7943 194.562 32.224 195.504 31.8173C196.447 31.4008 197.528 31.1925 198.748 31.1925C199.968 31.1925 201.054 31.4008 202.006 31.8173C202.958 32.224 203.757 32.7943 204.401 33.5283C205.056 34.2623 205.552 35.1302 205.889 36.132C206.227 37.1239 206.395 38.21 206.395 39.3904V39.7028C206.395 40.8732 206.227 41.9593 205.889 42.9611C205.552 43.953 205.056 44.8209 204.401 45.5648C203.757 46.2988 202.963 46.8691 202.021 47.2758C201.079 47.6825 199.998 47.8858 198.778 47.8858C197.558 47.8858 196.471 47.6825 195.519 47.2758C194.577 46.8691 193.778 46.2988 193.124 45.5648C192.479 44.8209 191.988 43.953 191.651 42.9611C191.314 41.9593 191.145 40.8732 191.145 39.7028ZM195.43 39.3904V39.7028C195.43 40.3773 195.489 41.0071 195.608 41.5923C195.727 42.1775 195.916 42.6933 196.174 43.1397C196.442 43.5761 196.789 43.9183 197.215 44.1663C197.642 44.4142 198.163 44.5382 198.778 44.5382C199.373 44.5382 199.883 44.4142 200.31 44.1663C200.736 43.9183 201.079 43.5761 201.337 43.1397C201.594 42.6933 201.783 42.1775 201.902 41.5923C202.031 41.0071 202.095 40.3773 202.095 39.7028V39.3904C202.095 38.7357 202.031 38.1208 201.902 37.5455C201.783 36.9602 201.59 36.4445 201.322 35.9981C201.064 35.5419 200.722 35.1848 200.295 34.9269C199.869 34.669 199.353 34.5401 198.748 34.5401C198.143 34.5401 197.627 34.669 197.2 34.9269C196.784 35.1848 196.442 35.5419 196.174 35.9981C195.916 36.4445 195.727 36.9602 195.608 37.5455C195.489 38.1208 195.43 38.7357 195.43 39.3904ZM218.536 44.077V24.7353H222.85V47.5883H218.967L218.536 44.077ZM208.359 39.7326V39.4201C208.359 38.1902 208.498 37.0743 208.776 36.0725C209.053 35.0608 209.46 34.1929 209.996 33.4688C210.531 32.7448 211.191 32.1843 211.975 31.7876C212.758 31.3908 213.651 31.1925 214.653 31.1925C215.595 31.1925 216.418 31.3908 217.122 31.7876C217.837 32.1843 218.442 32.7497 218.938 33.4837C219.443 34.2078 219.85 35.0658 220.158 36.0576C220.465 37.0396 220.688 38.1158 220.827 39.2862V39.9706C220.688 41.0914 220.465 42.1329 220.158 43.095C219.85 44.0572 219.443 44.9003 218.938 45.6243C218.442 46.3385 217.837 46.8939 217.122 47.2907C216.408 47.6874 215.575 47.8858 214.623 47.8858C213.621 47.8858 212.728 47.6825 211.945 47.2758C211.171 46.8691 210.516 46.2988 209.981 45.5648C209.455 44.8308 209.053 43.9679 208.776 42.976C208.498 41.9841 208.359 40.903 208.359 39.7326ZM212.644 39.4201V39.7326C212.644 40.3971 212.694 41.017 212.793 41.5923C212.902 42.1676 213.075 42.6784 213.314 43.1248C213.562 43.5612 213.879 43.9034 214.266 44.1514C214.663 44.3894 215.144 44.5085 215.709 44.5085C216.443 44.5085 217.048 44.3448 217.524 44.0175C218 43.6802 218.362 43.219 218.61 42.6338C218.868 42.0486 219.017 41.3741 219.057 40.6104V38.6613C219.027 38.0364 218.938 37.476 218.789 36.9801C218.65 36.4742 218.442 36.0428 218.164 35.6857C217.896 35.3286 217.559 35.0509 217.152 34.8525C216.755 34.6541 216.284 34.5549 215.739 34.5549C215.183 34.5549 214.707 34.6839 214.31 34.9418C213.914 35.1897 213.591 35.5319 213.343 35.9684C213.105 36.4048 212.927 36.9206 212.808 37.5157C212.699 38.1009 212.644 38.7357 212.644 39.4201ZM230.721 31.49V47.5883H226.421V31.49H230.721ZM226.153 27.2944C226.153 26.6695 226.372 26.1537 226.808 25.747C227.245 25.3404 227.83 25.137 228.564 25.137C229.288 25.137 229.868 25.3404 230.304 25.747C230.751 26.1537 230.974 26.6695 230.974 27.2944C230.974 27.9193 230.751 28.435 230.304 28.8417C229.868 29.2484 229.288 29.4517 228.564 29.4517C227.83 29.4517 227.245 29.2484 226.808 28.8417C226.372 28.435 226.153 27.9193 226.153 27.2944ZM238.458 34.9269V47.5883H234.173V31.49H238.19L238.458 34.9269ZM237.833 38.9738H236.672C236.672 37.7835 236.826 36.7123 237.134 35.7601C237.441 34.7979 237.873 33.9796 238.428 33.3052C238.983 32.6208 239.643 32.1 240.407 31.743C241.18 31.376 242.043 31.1925 242.996 31.1925C243.749 31.1925 244.439 31.3016 245.064 31.5198C245.689 31.738 246.224 32.0852 246.67 32.5613C247.127 33.0374 247.474 33.6672 247.712 34.4508C247.96 35.2344 248.084 36.1915 248.084 37.3223V47.5883H243.769V37.3074C243.769 36.5933 243.67 36.0378 243.472 35.641C243.273 35.2443 242.981 34.9666 242.594 34.8079C242.217 34.6392 241.751 34.5549 241.195 34.5549C240.62 34.5549 240.119 34.669 239.693 34.8971C239.276 35.1253 238.929 35.4427 238.651 35.8493C238.383 36.2461 238.18 36.7123 238.041 37.2479C237.902 37.7835 237.833 38.3588 237.833 38.9738ZM261.534 31.49H265.417V47.0526C265.417 48.5206 265.09 49.7654 264.435 50.7871C263.79 51.8186 262.888 52.5973 261.727 53.123C260.567 53.6586 259.218 53.9264 257.68 53.9264C257.006 53.9264 256.292 53.8371 255.538 53.6586C254.794 53.48 254.08 53.2023 253.395 52.8254C252.721 52.4485 252.156 51.9724 251.699 51.3971L253.589 48.8678C254.085 49.4431 254.66 49.8894 255.315 50.2068C255.969 50.5341 256.693 50.6978 257.487 50.6978C258.261 50.6978 258.915 50.554 259.451 50.2663C259.987 49.9886 260.398 49.577 260.686 49.0314C260.973 48.4958 261.117 47.8461 261.117 47.0824V35.2096L261.534 31.49ZM250.703 39.7326V39.4201C250.703 38.1902 250.851 37.0743 251.149 36.0725C251.456 35.0608 251.888 34.1929 252.443 33.4688C253.009 32.7448 253.693 32.1843 254.496 31.7876C255.3 31.3908 256.207 31.1925 257.219 31.1925C258.29 31.1925 259.188 31.3908 259.912 31.7876C260.636 32.1843 261.231 32.7497 261.698 33.4837C262.164 34.2078 262.526 35.0658 262.784 36.0576C263.051 37.0396 263.26 38.1158 263.408 39.2862V39.9706C263.26 41.0914 263.037 42.1329 262.739 43.095C262.441 44.0572 262.05 44.9003 261.564 45.6243C261.078 46.3385 260.473 46.8939 259.748 47.2907C259.034 47.6874 258.181 47.8858 257.189 47.8858C256.198 47.8858 255.3 47.6825 254.496 47.2758C253.703 46.8691 253.024 46.2988 252.458 45.5648C251.893 44.8308 251.456 43.9679 251.149 42.976C250.851 41.9841 250.703 40.903 250.703 39.7326ZM254.987 39.4201V39.7326C254.987 40.3971 255.052 41.017 255.181 41.5923C255.31 42.1676 255.508 42.6784 255.776 43.1248C256.054 43.5612 256.396 43.9034 256.803 44.1514C257.219 44.3894 257.71 44.5085 258.276 44.5085C259.059 44.5085 259.699 44.3448 260.195 44.0175C260.691 43.6802 261.063 43.219 261.311 42.6338C261.559 42.0486 261.702 41.3741 261.742 40.6104V38.6613C261.722 38.0364 261.638 37.476 261.489 36.9801C261.34 36.4742 261.132 36.0428 260.864 35.6857C260.597 35.3286 260.249 35.0509 259.823 34.8525C259.396 34.6541 258.89 34.5549 258.305 34.5549C257.74 34.5549 257.249 34.6839 256.832 34.9418C256.426 35.1897 256.083 35.5319 255.806 35.9684C255.538 36.4048 255.335 36.9206 255.196 37.5157C255.057 38.1009 254.987 38.7357 254.987 39.4201ZM287.883 41.9197C287.883 41.5328 287.824 41.1857 287.705 40.8782C287.596 40.5608 287.387 40.2731 287.08 40.0152C286.772 39.7474 286.341 39.4846 285.785 39.2267C285.23 38.9688 284.511 38.701 283.628 38.4233C282.646 38.1059 281.714 37.7488 280.831 37.352C279.958 36.9553 279.184 36.4941 278.51 35.9684C277.845 35.4328 277.32 34.8128 276.933 34.1086C276.556 33.4044 276.367 32.5861 276.367 31.6537C276.367 30.7511 276.566 29.9328 276.963 29.1988C277.359 28.4549 277.915 27.8201 278.629 27.2944C279.343 26.7588 280.186 26.3471 281.158 26.0595C282.14 25.7718 283.216 25.628 284.387 25.628C285.984 25.628 287.377 25.9157 288.568 26.4909C289.758 27.0662 290.68 27.8548 291.335 28.8566C291.999 29.8584 292.332 31.004 292.332 32.2934H287.898C287.898 31.6586 287.764 31.1032 287.496 30.6271C287.238 30.1411 286.842 29.7592 286.306 29.4815C285.78 29.2037 285.116 29.0649 284.312 29.0649C283.539 29.0649 282.894 29.1839 282.378 29.422C281.862 29.6501 281.476 29.9625 281.218 30.3593C280.96 30.7461 280.831 31.1825 280.831 31.6686C280.831 32.0356 280.92 32.3678 281.099 32.6654C281.287 32.963 281.565 33.2407 281.932 33.4986C282.299 33.7565 282.75 33.9995 283.286 34.2276C283.821 34.4557 284.441 34.6789 285.146 34.8971C286.326 35.2542 287.362 35.6559 288.255 36.1023C289.158 36.5486 289.912 37.0495 290.517 37.605C291.122 38.1604 291.578 38.7903 291.885 39.4945C292.193 40.1987 292.347 40.9972 292.347 41.8899C292.347 42.8322 292.163 43.6753 291.796 44.4192C291.429 45.1631 290.899 45.793 290.204 46.3087C289.51 46.8245 288.682 47.2163 287.72 47.4841C286.757 47.7519 285.681 47.8858 284.491 47.8858C283.42 47.8858 282.363 47.747 281.322 47.4692C280.28 47.1816 279.333 46.7501 278.48 46.1748C277.637 45.5995 276.963 44.8655 276.457 43.9728C275.951 43.0802 275.698 42.0238 275.698 40.8038H280.176C280.176 41.4783 280.28 42.0486 280.489 42.5148C280.697 42.981 280.99 43.3579 281.367 43.6455C281.753 43.9332 282.21 44.1415 282.735 44.2704C283.271 44.3994 283.856 44.4638 284.491 44.4638C285.265 44.4638 285.899 44.3547 286.395 44.1365C286.901 43.9183 287.273 43.6158 287.511 43.2289C287.759 42.8421 287.883 42.4057 287.883 41.9197ZM302.999 31.49V34.5252H293.626V31.49H302.999ZM295.947 27.5175H300.232V42.738C300.232 43.2041 300.292 43.5612 300.411 43.8092C300.54 44.0572 300.728 44.2307 300.976 44.3299C301.224 44.4192 301.536 44.4638 301.913 44.4638C302.181 44.4638 302.419 44.4539 302.627 44.4341C302.846 44.4043 303.029 44.3746 303.178 44.3448L303.193 47.499C302.826 47.618 302.429 47.7122 302.003 47.7817C301.576 47.8511 301.105 47.8858 300.589 47.8858C299.647 47.8858 298.824 47.7321 298.119 47.4246C297.425 47.1072 296.889 46.6013 296.513 45.907C296.136 45.2127 295.947 44.3002 295.947 43.1694V27.5175ZM304.368 39.7028V39.3904C304.368 38.21 304.537 37.1239 304.874 36.132C305.211 35.1302 305.702 34.2623 306.347 33.5283C306.992 32.7943 307.785 32.224 308.728 31.8173C309.67 31.4008 310.751 31.1925 311.971 31.1925C313.191 31.1925 314.277 31.4008 315.229 31.8173C316.182 32.224 316.98 32.7943 317.625 33.5283C318.279 34.2623 318.775 35.1302 319.113 36.132C319.45 37.1239 319.618 38.21 319.618 39.3904V39.7028C319.618 40.8732 319.45 41.9593 319.113 42.9611C318.775 43.953 318.279 44.8209 317.625 45.5648C316.98 46.2988 316.187 46.8691 315.244 47.2758C314.302 47.6825 313.221 47.8858 312.001 47.8858C310.781 47.8858 309.695 47.6825 308.742 47.2758C307.8 46.8691 307.002 46.2988 306.347 45.5648C305.702 44.8209 305.211 43.953 304.874 42.9611C304.537 41.9593 304.368 40.8732 304.368 39.7028ZM308.653 39.3904V39.7028C308.653 40.3773 308.713 41.0071 308.832 41.5923C308.951 42.1775 309.139 42.6933 309.397 43.1397C309.665 43.5761 310.012 43.9183 310.439 44.1663C310.865 44.4142 311.386 44.5382 312.001 44.5382C312.596 44.5382 313.107 44.4142 313.533 44.1663C313.96 43.9183 314.302 43.5761 314.56 43.1397C314.818 42.6933 315.006 42.1775 315.125 41.5923C315.254 41.0071 315.319 40.3773 315.319 39.7028V39.3904C315.319 38.7357 315.254 38.1208 315.125 37.5455C315.006 36.9602 314.813 36.4445 314.545 35.9981C314.287 35.5419 313.945 35.1848 313.518 34.9269C313.092 34.669 312.576 34.5401 311.971 34.5401C311.366 34.5401 310.85 34.669 310.424 34.9269C310.007 35.1848 309.665 35.5419 309.397 35.9981C309.139 36.4445 308.951 36.9602 308.832 37.5455C308.713 38.1208 308.653 38.7357 308.653 39.3904ZM326.537 35.0013V47.5883H322.252V31.49H326.284L326.537 35.0013ZM331.387 31.3859L331.313 35.3584C331.104 35.3286 330.851 35.3038 330.554 35.284C330.266 35.2542 330.003 35.2393 329.765 35.2393C329.16 35.2393 328.635 35.3187 328.188 35.4774C327.752 35.6262 327.385 35.8493 327.087 36.1469C326.8 36.4445 326.581 36.8065 326.433 37.233C326.294 37.6595 326.214 38.1455 326.195 38.6911L325.332 38.4233C325.332 37.3818 325.436 36.4246 325.644 35.5518C325.852 34.669 326.155 33.9003 326.552 33.2457C326.958 32.591 327.454 32.0852 328.039 31.7281C328.625 31.371 329.294 31.1925 330.048 31.1925C330.286 31.1925 330.529 31.2123 330.777 31.252C331.025 31.2817 331.228 31.3264 331.387 31.3859ZM340.522 47.8858C339.273 47.8858 338.152 47.6874 337.16 47.2907C336.168 46.884 335.325 46.3236 334.631 45.6095C333.946 44.8953 333.42 44.0671 333.053 43.1248C332.686 42.1726 332.503 41.1609 332.503 40.0896V39.4945C332.503 38.2745 332.677 37.1586 333.024 36.1469C333.371 35.1352 333.867 34.2574 334.512 33.5135C335.166 32.7696 335.96 32.1992 336.892 31.8025C337.824 31.3958 338.876 31.1925 340.046 31.1925C341.187 31.1925 342.199 31.3809 343.081 31.7578C343.964 32.1347 344.703 32.6704 345.298 33.3647C345.903 34.059 346.36 34.8922 346.667 35.8642C346.974 36.8263 347.128 37.8976 347.128 39.0779V40.8633H334.333V38.0067H342.918V37.6794C342.918 37.0842 342.809 36.5536 342.59 36.0874C342.382 35.6113 342.065 35.2344 341.638 34.9566C341.212 34.6789 340.666 34.5401 340.002 34.5401C339.436 34.5401 338.95 34.664 338.544 34.912C338.137 35.16 337.805 35.5071 337.547 35.9535C337.299 36.3998 337.11 36.9255 336.981 37.5306C336.862 38.1257 336.803 38.7804 336.803 39.4945V40.0896C336.803 40.7344 336.892 41.3295 337.071 41.875C337.259 42.4206 337.522 42.8917 337.859 43.2885C338.206 43.6852 338.623 43.9927 339.109 44.2109C339.605 44.4291 340.165 44.5382 340.79 44.5382C341.564 44.5382 342.283 44.3894 342.947 44.0919C343.622 43.7844 344.202 43.3232 344.688 42.7082L346.771 44.9697C346.434 45.4557 345.973 45.9219 345.387 46.3682C344.812 46.8146 344.118 47.1816 343.305 47.4692C342.491 47.747 341.564 47.8858 340.522 47.8858Z" fill="white"/>
<path d="M76.5059 0H0.69513C0.437706 0 0.228689 0.209934 0.228689 0.468917V73.389C0.228689 73.648 0.437706 73.858 0.69513 73.858H76.5059C76.7634 73.858 76.9712 73.648 76.9712 73.389V0.468917C76.9712 0.209934 76.7634 0 76.5059 0Z" fill="#545BE8"/>
<path d="M20.5114 16.254V57.6039" stroke="white" stroke-width="6.7074"/>
<path d="M32.9019 16.254V36.8508" stroke="white" stroke-width="6.69467"/>
<path d="M42.3408 16.2555V23.2515H54.1643L62.7411 40.9743H70.4639L58.1986 16.2555H42.3408Z" fill="white"/>
<path d="M45.854 30.8331V58.4249" stroke="white" stroke-width="7.74855"/>
</g>
<defs>
<clipPath id="clip0_119_148">
<rect width="348.235" height="74" fill="white" transform="translate(0.228689)"/>
</clipPath>
</defs>
</svg>
