<svg width="160" height="159" viewBox="0 0 160 159" fill="none" xmlns="http://www.w3.org/2000/svg">
<rect x="2.98291" y="2.48437" width="154.031" height="154.031" stroke="white" stroke-width="4.96874"/>
<g clip-path="url(#clip0_119_143)">
<path d="M79.3856 59.4149C68.2183 59.4149 59.2106 68.3761 59.2106 79.4859C59.2106 90.5957 68.2183 99.5569 79.3856 99.5569C90.5529 99.5569 99.5605 90.5957 99.5605 79.4859C99.5605 68.3761 90.5529 59.4149 79.3856 59.4149ZM79.3856 92.5346C72.169 92.5346 66.2692 86.6828 66.2692 79.4859C66.2692 72.289 72.1514 66.4371 79.3856 66.4371C86.6198 66.4371 92.5019 72.289 92.5019 79.4859C92.5019 86.6828 86.6022 92.5346 79.3856 92.5346V92.5346ZM105.092 58.5939C105.092 61.1966 102.984 63.2754 100.386 63.2754C97.7696 63.2754 95.6801 61.1792 95.6801 58.5939C95.6801 56.0086 97.7871 53.9124 100.386 53.9124C102.984 53.9124 105.092 56.0086 105.092 58.5939ZM118.454 63.3452C118.155 57.0741 116.715 51.5192 112.097 46.9426C107.497 42.3659 101.913 40.9335 95.6098 40.6191C89.1131 40.2522 69.6405 40.2522 63.1438 40.6191C56.8578 40.916 51.2741 42.3484 46.6562 46.9251C42.0382 51.5018 40.616 57.0567 40.2999 63.3278C39.9312 69.791 39.9312 89.1633 40.2999 95.6265C40.5984 101.898 42.0382 107.452 46.6562 112.029C51.2741 116.606 56.8402 118.038 63.1438 118.353C69.6405 118.719 89.1131 118.719 95.6098 118.353C101.913 118.056 107.497 116.623 112.097 112.029C116.698 107.452 118.138 101.898 118.454 95.6265C118.822 89.1633 118.822 69.8085 118.454 63.3452V63.3452ZM110.061 102.561C108.691 105.985 106.04 108.623 102.581 110.003C97.4008 112.047 85.1097 111.575 79.3856 111.575C73.6615 111.575 61.3528 112.029 56.1905 110.003C52.749 108.64 50.0977 106.003 48.7105 102.561C46.6562 97.4083 47.1303 85.1805 47.1303 79.4859C47.1303 73.7912 46.6737 61.546 48.7105 56.4103C50.0801 52.9866 52.7315 50.3489 56.1905 48.9689C61.3704 46.9251 73.6615 47.3967 79.3856 47.3967C85.1097 47.3967 97.4184 46.9426 102.581 48.9689C106.022 50.3314 108.674 52.9691 110.061 56.4103C112.115 61.5635 111.641 73.7912 111.641 79.4859C111.641 85.1805 112.115 97.4257 110.061 102.561Z" fill="white"/>
</g>
<defs>
<clipPath id="clip0_119_143">
<rect width="79.4999" height="89.4373" fill="white" transform="translate(40.2471 34.7827)"/>
</clipPath>
</defs>
</svg>
