<svg width="159" height="159" viewBox="0 0 159 159" fill="none" xmlns="http://www.w3.org/2000/svg">
<rect x="2.48449" y="2.48437" width="154.031" height="154.031" stroke="white" stroke-width="4.96874"/>
<g clip-path="url(#clip0_119_138)">
<path d="M57.3991 114.282V63.9956H40.5342V114.282H57.3991ZM48.9688 57.1258C54.8499 57.1258 58.5106 53.2644 58.5106 48.439C58.401 43.5047 54.8501 39.7505 49.0804 39.7505C43.3116 39.7505 39.5392 43.5048 39.5392 48.439C39.5392 53.2646 43.199 57.1258 48.8587 57.1258H48.9683H48.9688ZM66.7337 114.282H83.5986V86.1995C83.5986 84.6966 83.7082 83.1952 84.1535 82.1208C85.3727 79.1181 88.1477 76.008 92.8065 76.008C98.9092 76.008 101.351 80.6194 101.351 87.3794V114.281H118.214V85.4478C118.214 70.0019 109.894 62.815 98.7981 62.815C89.7002 62.815 85.7056 67.855 83.4864 71.2877H83.599V63.9946H66.7341C66.9554 68.7131 66.7341 114.281 66.7341 114.281L66.7337 114.282Z" fill="white"/>
</g>
<defs>
<clipPath id="clip0_119_138">
<rect width="79.4999" height="74.5311" fill="white" transform="translate(39.7493 39.7515)"/>
</clipPath>
</defs>
</svg>
