<svg width="78" height="75" viewBox="0 0 78 75" fill="none" xmlns="http://www.w3.org/2000/svg">
<path d="M37.0325 2.16429C37.5893 0.450652 40.0137 0.450654 40.5705 2.16429L48.4062 26.2803C48.6552 27.0466 49.3694 27.5655 50.1752 27.5655H75.5322C77.3341 27.5655 78.0832 29.8712 76.6255 30.9303L56.1113 45.8348C55.4593 46.3084 55.1866 47.148 55.4356 47.9143L63.2713 72.0303C63.8281 73.7439 61.8668 75.1689 60.4091 74.1098L39.8948 59.2054C39.2429 58.7317 38.3601 58.7317 37.7082 59.2054L17.194 74.1098C15.7362 75.1689 13.7749 73.7439 14.3317 72.0303L22.1675 47.9143C22.4165 47.148 22.1437 46.3084 21.4918 45.8348L0.977497 30.9303C-0.480213 29.8712 0.268952 27.5655 2.07078 27.5655H27.4278C28.2336 27.5655 28.9478 27.0466 29.1968 26.2803L37.0325 2.16429Z" fill="#F1CC4A"/>
</svg>
