<svg width="160" height="159" viewBox="0 0 160 159" fill="none" xmlns="http://www.w3.org/2000/svg">
<rect x="2.98364" y="2.48437" width="154.031" height="154.031" stroke="white" stroke-width="4.96874"/>
<g clip-path="url(#clip0_119_133)">
<path d="M123.62 53.193C120.307 54.6064 116.792 55.5342 113.192 55.9455C116.941 53.7821 119.82 50.3562 121.175 46.2743C117.611 48.3106 113.712 49.7452 109.646 50.5163C106.334 47.1191 101.616 44.9959 96.3937 44.9959C86.3667 44.9959 78.2372 52.8228 78.2372 62.4764C78.2372 63.8466 78.3979 65.1806 78.7073 66.4604C63.6181 65.7312 50.24 58.7719 41.2849 48.1958C39.7224 50.7776 38.8271 53.7807 38.8271 56.9839C38.8271 63.0488 42.0327 68.3992 46.9041 71.5341C44.0209 71.4472 41.2011 70.6974 38.6802 69.3474C38.6792 69.4206 38.6792 69.4938 38.6792 69.5674C38.6792 78.037 44.9375 85.1024 53.243 86.7084C50.5694 87.4084 47.7649 87.5109 45.0439 87.0079C47.3542 93.9528 54.0595 99.0066 62.0041 99.148C55.7903 103.836 47.9615 106.631 39.4556 106.631C37.9899 106.631 36.5449 106.548 35.1245 106.387C43.1593 111.347 52.7026 114.241 62.9557 114.241C96.3515 114.241 114.613 87.6037 114.613 64.5037C114.613 63.7455 114.596 62.9916 114.561 62.2421C118.115 59.768 121.183 56.7037 123.62 53.193" fill="white"/>
</g>
<defs>
<clipPath id="clip0_119_133">
<rect width="89.4373" height="69.5624" fill="white" transform="translate(35.2813 44.7193)"/>
</clipPath>
</defs>
</svg>
